<?xml version="1.0" encoding="utf-8"?>
<!-- Generator: Adobe Illustrator 15.1.0, SVG Export Plug-In . SVG Version: 6.00 Build 0)  -->
<!DOCTYPE svg PUBLIC "-//W3C//DTD SVG 1.1//EN" "http://www.w3.org/Graphics/SVG/1.1/DTD/svg11.dtd">
<svg version="1.1" id="Layer_1" xmlns="http://www.w3.org/2000/svg" xmlns:xlink="http://www.w3.org/1999/xlink" x="0px" y="0px"
	 width="33.432px" height="33.971px" viewBox="0 0 33.432 33.971" enable-background="new 0 0 33.432 33.971" xml:space="preserve">
<g>
	<path opacity="0.7" fill="#034F71" d="M25.122,14.568c3.234,0,5.852-2.609,5.852-5.828c0-3.215-2.617-5.822-5.852-5.822
		c-3.223,0-5.848,2.607-5.848,5.822C19.274,11.959,21.899,14.568,25.122,14.568z M25.076,17.229c-4.62,0-8.359,3.521-8.359,7.865
		v8.877h16.715v-8.877C33.432,20.75,29.696,17.229,25.076,17.229z"/>
	<path fill="#034F71" d="M9.196,12.744c3.536,0,6.399-2.854,6.399-6.375C15.596,2.852,12.732,0,9.196,0
		C5.667,0,2.799,2.852,2.799,6.369C2.799,9.891,5.667,12.744,9.196,12.744z M9.145,15.654C4.091,15.654,0,19.508,0,24.258v9.713
		h18.286v-9.713C18.286,19.508,14.198,15.654,9.145,15.654z"/>
</g>
</svg>
