<?xml version="1.0" encoding="utf-8"?>
<!-- Generator: Adobe Illustrator 15.1.0, SVG Export Plug-In . SVG Version: 6.00 Build 0)  -->
<!DOCTYPE svg PUBLIC "-//W3C//DTD SVG 1.1//EN" "http://www.w3.org/Graphics/SVG/1.1/DTD/svg11.dtd">
<svg version="1.1" id="Layer_1" xmlns="http://www.w3.org/2000/svg" xmlns:xlink="http://www.w3.org/1999/xlink" x="0px" y="0px"
	 width="39.145px" height="29.131px" viewBox="0 0 39.145 29.131" enable-background="new 0 0 39.145 29.131" xml:space="preserve">
<g>
	<path fill="#034F71" d="M-1388.541,713.426c-0.775,0-2.047,0-2.823,0h-2.153c-0.776,0-2.047,0-2.823,0h-7.372
		c-0.776,0-1.412,0.635-1.412,1.41v1.625c0,0.777,0.636,1.412,1.412,1.412h4.054c0.776,0,1.993,0.254,2.705,0.566l0.731,0.32
		c0.711,0.311,1.293,1.201,1.293,1.979v3.98c0,0.775,0.636,1.412,1.412,1.412h14.754c0.777,0,1.412-0.637,1.412-1.412v-9.883
		c0-0.775-0.635-1.41-1.412-1.41H-1388.541z"/>
	<path fill="#034F71" d="M-1380.044,697c-1.818,0-3.482,0.666-4.76,1.766c-1.477,1.166-2.954,0-2.954,0l0,0
		c-1.278-1.1-2.94-1.766-4.759-1.766c-4.029,0-7.295,3.266-7.295,7.295s3.266,7.295,7.295,7.295h12.473
		c4.028,0,7.294-3.266,7.294-7.295S-1376.016,697-1380.044,697z M-1392.517,706.045c-0.967,0-1.75-0.783-1.75-1.75
		s0.783-1.75,1.75-1.75s1.751,0.783,1.751,1.75S-1391.55,706.045-1392.517,706.045z M-1380.044,706.045
		c-0.968,0-1.752-0.783-1.752-1.75s0.784-1.75,1.752-1.75c0.967,0,1.75,0.783,1.75,1.75S-1379.078,706.045-1380.044,706.045z"/>
	<rect x="-1384.857" y="716.621" fill="#034F71" width="10.908" height="6.312"/>
	<path fill="#034F71" d="M-1367.07,714.025c-0.988,0-2.553,0.969-2.553,0.969l-2.578,1.598v6.371l2.578,1.6
		c0,0,1.564,0.969,2.553,0.969s1.089,0,1.089,0v-11.506H-1367.07z"/>
</g>
<g>
	<path fill="#034F71" d="M16.584,16.426c-0.775,0-2.047,0-2.823,0h-2.153c-0.776,0-2.047,0-2.823,0H1.412
		C0.636,16.426,0,17.061,0,17.836v1.625c0,0.777,0.636,1.412,1.412,1.412h4.054c0.776,0,1.993,0.254,2.705,0.566l0.731,0.32
		c0.711,0.311,1.293,1.201,1.293,1.979v3.98c0,0.775,0.636,1.412,1.412,1.412h14.754c0.777,0,1.412-0.637,1.412-1.412v-9.883
		c0-0.775-0.635-1.41-1.412-1.41H16.584z"/>
	<path fill="#034F71" d="M25.08,0c-1.818,0-3.482,0.666-4.76,1.766c-1.477,1.166-2.954,0-2.954,0l0,0
		C16.088,0.666,14.426,0,12.607,0C8.578,0,5.312,3.266,5.312,7.295s3.266,7.295,7.295,7.295H25.08c4.028,0,7.294-3.266,7.294-7.295
		S29.108,0,25.08,0z M12.607,9.045c-0.967,0-1.75-0.783-1.75-1.75s0.783-1.75,1.75-1.75s1.751,0.783,1.751,1.75
		S13.574,9.045,12.607,9.045z M25.08,9.045c-0.968,0-1.752-0.783-1.752-1.75s0.784-1.75,1.752-1.75c0.967,0,1.75,0.783,1.75,1.75
		S26.047,9.045,25.08,9.045z"/>
	<rect x="20.268" y="19.621" fill="#034F71" width="10.908" height="6.312"/>
	<path fill="#034F71" d="M38.055,17.025c-0.988,0-2.553,0.969-2.553,0.969l-2.578,1.598v6.371l2.578,1.6
		c0,0,1.564,0.969,2.553,0.969s1.09,0,1.09,0V17.025H38.055z"/>
</g>
</svg>
