<?xml version="1.0" encoding="utf-8"?>
<!-- Generator: Adobe Illustrator 15.1.0, SVG Export Plug-In . SVG Version: 6.00 Build 0)  -->
<!DOCTYPE svg PUBLIC "-//W3C//DTD SVG 1.1//EN" "http://www.w3.org/Graphics/SVG/1.1/DTD/svg11.dtd">
<svg version="1.1" id="Layer_1" xmlns="http://www.w3.org/2000/svg" xmlns:xlink="http://www.w3.org/1999/xlink" x="0px" y="0px"
	 width="62.617px" height="57.39px" viewBox="0 0 62.617 57.39" enable-background="new 0 0 62.617 57.39" xml:space="preserve">
<g>
	<g>
		<path fill="#AE272D" d="M60.039,14.559C54.835,4.104,43.661,0.306,43.186,0.149c-1.539-0.508-3.2,0.326-3.71,1.865
			c-0.516,1.541,0.316,3.203,1.854,3.723c0.091,0.031,11.544,2.117,15.62,10.366c2.48,5.024,0.411,12.114-1.891,18.872
			c-0.522,1.536,0.301,3.212,1.839,3.732c0.314,0.107,0.636,0.156,0.949,0.156c1.228,0,2.37-0.771,2.785-1.996
			C63.464,28.554,63.265,21.045,60.039,14.559z"/>
		<path fill="#AE272D" d="M35.334,12.651c-1.519,2.046-6.24,8.258-16.84,13.807l-0.497-0.459
			c-1.108,0.047-13.153,5.912-14.008,6.839c-0.123,0.13-0.146,0.439-0.098,0.866c-0.901,0.441-1.25,0.613-1.25,0.613
			s-2.727,1.67-2.64,3.887c0.096,2.361,0.987,4.387,2.328,6.334c1.536,2.23,2.973,2.925,7.532,0.723
			c0.733,0.43,1.214,0.59,1.48,0.582c0.122-0.004,1.186-0.455,2.618-1.09c2.081,2.715,8.492,10.939,10.793,12.211
			c2.76,1.531,6.504-1.318,4.012-4.396c-4.383-5.404-4.378-7.445-7.847-10.971c0.977-0.455,1.706-0.801,1.943-0.925
			c0.711-0.372,1.222-1.112,1.464-1.781c8.005-3.011,15.943-4.957,21.776-3.962c0.99,0.171,3.106,0.16,3.066-0.884
			c-0.045-1.048-2.81-10.318-9.596-20.651C38.02,11.03,37.59,9.61,35.334,12.651z"/>
	</g>
</g>
</svg>
