<?xml version="1.0" encoding="utf-8"?>
<!-- Generator: Adobe Illustrator 15.1.0, SVG Export Plug-In . SVG Version: 6.00 Build 0)  -->
<!DOCTYPE svg PUBLIC "-//W3C//DTD SVG 1.1//EN" "http://www.w3.org/Graphics/SVG/1.1/DTD/svg11.dtd">
<svg version="1.1" id="Layer_1" xmlns="http://www.w3.org/2000/svg" xmlns:xlink="http://www.w3.org/1999/xlink" x="0px" y="0px"
	 width="55.838px" height="73.014px" viewBox="0 0 55.838 73.014" enable-background="new 0 0 55.838 73.014" xml:space="preserve">
<g>
	<g>
		<path fill="#AE272D" d="M19.518,8.399C19.518,3.763,23.28,0,27.919,0l0,0c4.64,0,8.399,3.763,8.399,8.399l0,0
			c0,4.639-3.76,8.4-8.399,8.4l0,0C23.28,16.8,19.518,13.038,19.518,8.399L19.518,8.399z M22.505,2.983
			c-1.391,1.388-2.244,3.3-2.244,5.416l0,0c0,2.117,0.853,4.032,2.244,5.416l0,0c1.385,1.389,3.298,2.247,5.414,2.247l0,0
			c2.119,0,4.03-0.858,5.419-2.247l0,0c1.387-1.384,2.243-3.299,2.243-5.416l0,0c0-2.116-0.856-4.028-2.243-5.416l0,0
			c-1.389-1.387-3.3-2.244-5.419-2.244l0,0C25.803,0.739,23.89,1.597,22.505,2.983L22.505,2.983z"/>
		<rect x="26.1" y="6.419" fill="#AE272D" width="3.64" height="12.696"/>
		<rect x="24.022" y="6.419" fill="#AE272D" width="7.794" height="7.554"/>
		
			<rect x="42.471" y="12.254" transform="matrix(0.8661 0.4999 -0.4999 0.8661 14.5591 -19.6393)" fill="#AE272D" width="2.928" height="10.2"/>
		
			<rect x="42.087" y="12.446" transform="matrix(0.866 0.5001 -0.5001 0.866 14.0456 -20.1678)" fill="#AE272D" width="5.122" height="7.348"/>
		
			<rect x="41.24" y="19.273" transform="matrix(0.8661 0.4999 -0.4999 0.8661 15.461 -18.7384)" opacity="0.2" fill="#AE272D" width="2.928" height="0.43"/>
		<circle fill="#AE272D" cx="27.919" cy="45.095" r="27.919"/>
		<path fill="#FFFFFF" d="M51.148,45.095c0,12.83-10.397,23.23-23.229,23.23c-12.829,0-23.229-10.4-23.229-23.23
			c0-12.831,10.4-23.229,23.229-23.229C40.751,21.866,51.148,32.264,51.148,45.095z"/>
	</g>
	<g>
		<g>
			<g>
				<path fill="#AE272D" d="M24.201,45.456v-2.944h2.535V30.038h-2.693v-2.943h6.733v15.417h2.402v2.944H24.201z"/>
			</g>
		</g>
		<g>
			<text transform="matrix(1 0 0 1 13.52 59.8486)" fill="#AE272D" font-family="'Ubuntu-Light'" font-size="15.7696">min.</text>
		</g>
	</g>
</g>
</svg>
