<?xml version="1.0" encoding="utf-8"?>
<!-- Generator: Adobe Illustrator 15.1.0, SVG Export Plug-In . SVG Version: 6.00 Build 0)  -->
<!DOCTYPE svg PUBLIC "-//W3C//DTD SVG 1.1//EN" "http://www.w3.org/Graphics/SVG/1.1/DTD/svg11.dtd">
<svg version="1.1" id="Layer_1" xmlns="http://www.w3.org/2000/svg" xmlns:xlink="http://www.w3.org/1999/xlink" x="0px" y="0px"
	 width="50.147px" height="50.956px" viewBox="0 0 50.147 50.956" enable-background="new 0 0 50.147 50.956" xml:space="preserve">
<g>
	<g>
		<path opacity="0.7" fill="#AE272D" d="M37.684,21.853c4.851,0,8.776-3.914,8.776-8.742c0-4.822-3.926-8.733-8.776-8.733
			c-4.836,0-8.772,3.911-8.772,8.733C28.912,17.938,32.848,21.853,37.684,21.853z M37.614,25.843
			c-6.928,0-12.539,5.282-12.539,11.798v13.315h25.072V37.641C50.147,31.125,44.544,25.843,37.614,25.843z"/>
		<path fill="#AE272D" d="M13.794,19.116c5.304,0,9.599-4.28,9.599-9.562C23.394,4.277,19.099,0,13.794,0
			C8.501,0,4.198,4.277,4.198,9.554C4.198,14.836,8.501,19.116,13.794,19.116z M13.717,23.481C6.137,23.481,0,29.262,0,36.387
			v14.569h27.429V36.387C27.429,29.262,21.296,23.481,13.717,23.481z"/>
	</g>
</g>
</svg>
