<?xml version="1.0" encoding="utf-8"?>
<!-- Generator: Adobe Illustrator 15.1.0, SVG Export Plug-In . SVG Version: 6.00 Build 0)  -->
<!DOCTYPE svg PUBLIC "-//W3C//DTD SVG 1.1//EN" "http://www.w3.org/Graphics/SVG/1.1/DTD/svg11.dtd">
<svg version="1.1" id="Layer_1" xmlns="http://www.w3.org/2000/svg" xmlns:xlink="http://www.w3.org/1999/xlink" x="0px" y="0px"
	 width="30.188px" height="41.299px" viewBox="0 0 30.188 41.299" enable-background="new 0 0 30.188 41.299" xml:space="preserve">
<g>
	<path fill="#034F71" d="M26.361,41.299H3.828C1.717,41.299,0,39.582,0,37.473V8.322c0-2.111,1.717-3.828,3.828-3.828h22.533
		c2.11,0,3.827,1.717,3.827,3.828v29.15C30.188,39.582,28.471,41.299,26.361,41.299z M3.828,7.613c-0.384,0-0.708,0.324-0.708,0.709
		v29.15c0,0.383,0.324,0.707,0.708,0.707h22.533c0.384,0,0.708-0.324,0.708-0.707V8.322c0-0.385-0.324-0.709-0.708-0.709H3.828z"/>
	<g>
		<path fill="#034F71" d="M22.727,8.535c0,0.494-0.404,0.9-0.9,0.9H8.362c-0.496,0-0.901-0.406-0.901-0.9V3.572
			c0-0.496,0.405-0.9,0.901-0.9h13.465c0.496,0,0.9,0.404,0.9,0.9V8.535z"/>
	</g>
	<circle fill="#034F71" cx="15.094" cy="2.672" r="2.672"/>
</g>
</svg>
