<?xml version="1.0" encoding="utf-8"?>
<!-- Generator: Adobe Illustrator 15.1.0, SVG Export Plug-In . SVG Version: 6.00 Build 0)  -->
<!DOCTYPE svg PUBLIC "-//W3C//DTD SVG 1.1//EN" "http://www.w3.org/Graphics/SVG/1.1/DTD/svg11.dtd">
<svg version="1.1" id="Layer_1" xmlns="http://www.w3.org/2000/svg" xmlns:xlink="http://www.w3.org/1999/xlink" x="0px" y="0px"
	 width="58.717px" height="43.696px" viewBox="0 0 58.717 43.696" enable-background="new 0 0 58.717 43.696" xml:space="preserve">
<g>
	<g>
		<path fill="#AE272D" d="M24.876,24.639c-1.163,0-3.07,0-4.235,0h-3.23c-1.165,0-3.07,0-4.235,0H2.118
			C0.954,24.639,0,25.591,0,26.754v2.438c0,1.166,0.954,2.118,2.118,2.118h6.081c1.165,0,2.99,0.381,4.058,0.85l1.097,0.48
			c1.066,0.466,1.939,1.802,1.939,2.968v5.971c0,1.163,0.954,2.118,2.118,2.118h22.131c1.166,0,2.118-0.955,2.118-2.118V26.754
			c0-1.163-0.952-2.115-2.118-2.115H24.876z"/>
		<path fill="#AE272D" d="M37.62,0c-2.728,0-5.224,0.999-7.14,2.648c-2.215,1.749-4.431,0-4.431,0l0,0
			C24.132,0.999,21.639,0,18.911,0C12.867,0,7.969,4.898,7.969,10.942s4.898,10.942,10.942,10.942H37.62
			c6.043,0,10.941-4.898,10.941-10.942S43.663,0,37.62,0z M18.911,13.567c-1.45,0-2.625-1.175-2.625-2.625s1.175-2.625,2.625-2.625
			s2.626,1.175,2.626,2.625S20.361,13.567,18.911,13.567z M37.62,13.567c-1.451,0-2.628-1.175-2.628-2.625s1.177-2.625,2.628-2.625
			c1.45,0,2.625,1.175,2.625,2.625S39.07,13.567,37.62,13.567z"/>
		<rect x="30.401" y="29.432" fill="#AE272D" width="16.362" height="9.469"/>
		<path fill="#AE272D" d="M57.082,25.538c-1.482,0-3.829,1.453-3.829,1.453l-3.867,2.396v9.557l3.867,2.399
			c0,0,2.347,1.453,3.829,1.453s1.635,0,1.635,0V25.538H57.082z"/>
	</g>
</g>
</svg>
