<?xml version="1.0" encoding="utf-8"?>
<!-- Generator: Adobe Illustrator 15.1.0, SVG Export Plug-In . SVG Version: 6.00 Build 0)  -->
<!DOCTYPE svg PUBLIC "-//W3C//DTD SVG 1.1//EN" "http://www.w3.org/Graphics/SVG/1.1/DTD/svg11.dtd">
<svg version="1.1" id="Layer_1" xmlns="http://www.w3.org/2000/svg" xmlns:xlink="http://www.w3.org/1999/xlink" x="0px" y="0px"
	 width="41.745px" height="38.26px" viewBox="0 0 41.745 38.26" enable-background="new 0 0 41.745 38.26" xml:space="preserve">
<g>
	<path fill="#034F71" d="M40.026,9.706c-3.47-6.97-10.919-9.502-11.235-9.606c-1.026-0.339-2.133,0.217-2.474,1.243
		c-0.344,1.027,0.211,2.136,1.236,2.481c0.062,0.021,7.696,1.412,10.413,6.911c1.654,3.35,0.275,8.076-1.26,12.581
		c-0.348,1.024,0.2,2.142,1.226,2.488c0.21,0.072,0.425,0.104,0.634,0.104c0.818,0,1.58-0.514,1.855-1.331
		C42.309,19.036,42.177,14.03,40.026,9.706z"/>
	<path fill="#034F71" d="M23.556,8.434c-1.012,1.364-4.16,5.506-11.227,9.205l-0.331-0.307c-0.739,0.031-8.769,3.941-9.338,4.56
		c-0.083,0.087-0.097,0.293-0.065,0.577c-0.602,0.295-0.833,0.409-0.833,0.409s-1.818,1.113-1.76,2.591
		c0.063,1.574,0.658,2.925,1.552,4.223c1.024,1.487,1.982,1.95,5.022,0.482c0.488,0.286,0.809,0.393,0.986,0.388
		c0.081-0.003,0.79-0.304,1.745-0.727c1.388,1.81,5.662,7.293,7.196,8.141c1.84,1.021,4.336-0.879,2.674-2.931
		c-2.922-3.604-2.918-4.964-5.231-7.314c0.651-0.303,1.137-0.533,1.295-0.616c0.474-0.248,0.814-0.741,0.976-1.188
		c5.336-2.007,10.628-3.305,14.517-2.642c0.66,0.114,2.072,0.107,2.045-0.589c-0.03-0.698-1.873-6.879-6.397-13.768
		C25.346,7.354,25.06,6.406,23.556,8.434z"/>
</g>
</svg>
