<?xml version="1.0" encoding="utf-8"?>
<!-- Generator: Adobe Illustrator 15.1.0, SVG Export Plug-In . SVG Version: 6.00 Build 0)  -->
<!DOCTYPE svg PUBLIC "-//W3C//DTD SVG 1.1//EN" "http://www.w3.org/Graphics/SVG/1.1/DTD/svg11.dtd">
<svg version="1.1" id="Layer_1" xmlns="http://www.w3.org/2000/svg" xmlns:xlink="http://www.w3.org/1999/xlink" x="0px" y="0px"
	 width="45.283px" height="61.947px" viewBox="0 0 45.283 61.947" enable-background="new 0 0 45.283 61.947" xml:space="preserve">
<g>
	<g>
		<path fill="#AE272D" d="M39.542,61.947h-33.8C2.576,61.947,0,59.373,0,56.209V12.482C0,9.316,2.576,6.74,5.742,6.74h33.8
			c3.165,0,5.741,2.576,5.741,5.742v43.727C45.283,59.373,42.707,61.947,39.542,61.947z M5.742,11.42
			c-0.576,0-1.062,0.486-1.062,1.062v43.727c0,0.574,0.486,1.061,1.062,1.061h33.8c0.575,0,1.062-0.486,1.062-1.061V12.482
			c0-0.576-0.486-1.062-1.062-1.062H5.742z"/>
		<g>
			<path fill="#AE272D" d="M34.091,12.802c0,0.742-0.607,1.351-1.351,1.351H12.542c-0.743,0-1.351-0.608-1.351-1.351V5.358
				c0-0.742,0.608-1.351,1.351-1.351h20.198c0.743,0,1.351,0.608,1.351,1.351V12.802z"/>
		</g>
		<circle fill="#AE272D" cx="22.642" cy="4.008" r="4.008"/>
	</g>
</g>
</svg>
