<?xml version="1.0" encoding="utf-8"?>
<!-- Generator: Adobe Illustrator 15.1.0, SVG Export Plug-In . SVG Version: 6.00 Build 0)  -->
<!DOCTYPE svg PUBLIC "-//W3C//DTD SVG 1.1//EN" "http://www.w3.org/Graphics/SVG/1.1/DTD/svg11.dtd">
<svg version="1.1" id="Layer_1" xmlns="http://www.w3.org/2000/svg" xmlns:xlink="http://www.w3.org/1999/xlink" x="0px" y="0px"
	 width="138.006px" height="98.123px" viewBox="0 0 138.006 98.123" enable-background="new 0 0 138.006 98.123"
	 xml:space="preserve">
<g>
	<path fill="#010101" d="M65.975,3.794c2.183-5.153,5.867-5.043,8.187,0.246c2.32,5.29,13.539,20.002,24.93,32.694
		c11.393,12.692,9.494,35.282-4.218,50.2s-36.149,14.918-49.861,0c-13.711-14.918-15.498-37.619-3.968-50.447
		C52.574,23.659,63.792,8.947,65.975,3.794z"/>
	<linearGradient id="SVGID_1_" gradientUnits="userSpaceOnUse" x1="51.4595" y1="28.1665" x2="68.8106" y2="40.7012">
		<stop  offset="0" style="stop-color:#FFFFFF"/>
		<stop  offset="1" style="stop-color:#000000"/>
	</linearGradient>
	<path opacity="0.3" fill="url(#SVGID_1_)" d="M65.73,8.435c2.182-5.152-15.286,33.541-3.895,46.234
		C73.227,67.361,29.271,53.957,40.8,41.128C52.329,28.301,63.547,13.589,65.73,8.435z"/>
	<path opacity="0.6" fill="#1072BA" d="M129.805,71.308c2.497,0.738,4.994,1.623,7.49,2.695V50.155
		c-2.496-1.072-4.993-1.957-7.49-2.695V71.308z"/>
	<path opacity="0.6" fill="#1072BA" d="M8.2,52.852c-2.496-0.738-4.993-1.624-7.489-2.696c0,11.632,0,12.217,0,23.848
		c2.496,1.072,4.993,1.957,7.489,2.696V52.852z"/>
	<path fill="#FFFFFF" d="M108.43,80.357c-13.217,0-26.617-2.876-39.576-5.658c-12.887-2.765-26.212-5.626-39.28-5.626
		c-10.479,0-19.829,1.826-28.582,5.584L0,75.084V49.688l0.43-0.186c8.935-3.835,18.468-5.699,29.146-5.699
		c13.218,0,26.619,2.876,39.578,5.657c12.887,2.767,26.212,5.626,39.279,5.626c10.479,0,19.829-1.826,28.581-5.584l0.992-0.425
		v25.396l-0.431,0.184C128.641,78.493,119.107,80.357,108.43,80.357z"/>
	<path fill="#1072BA" d="M137.295,74.005c-45.527,19.543-91.056-19.544-136.583,0c0-11.633,0-12.216,0-23.848
		c45.527-19.545,91.056,19.543,136.583,0C137.295,61.789,137.295,62.372,137.295,74.005z"/>
	<path fill="none" d="M3.835,67.808c43.445-18.649,86.891,18.649,130.334,0"/>
	<text transform="matrix(0.9944 -0.1053 0.1053 0.9944 21.229 63.043)"><tspan x="0" y="0" fill="#FFFFFF" font-family="'Ubuntu-Bold'" font-size="17.0268"> </tspan><tspan x="3.386" y="-0.116" fill="#FFFFFF" font-family="'Ubuntu-Bold'" font-size="17.0268" rotate="4.578">K</tspan><tspan x="12.315" y="0.602" fill="#FFFFFF" font-family="'Ubuntu-Bold'" font-size="17.0268" rotate="10.095">o</tspan><tspan x="21.349" y="2.249" fill="#FFFFFF" font-family="'Ubuntu-Bold'" font-size="17.0268" rotate="13.885">c</tspan><tspan x="28.638" y="4.043" fill="#FFFFFF" font-family="'Ubuntu-Bold'" font-size="17.0268" rotate="16.469">h</tspan><tspan x="37.614" y="6.719" fill="#FFFFFF" font-family="'Ubuntu-Bold'" font-size="17.0268" rotate="17.906">T</tspan><tspan x="45.66" y="9.33" fill="#FFFFFF" font-family="'Ubuntu-Bold'" font-size="17.0268" rotate="18.145">r</tspan><tspan x="50.922" y="11.07" fill="#FFFFFF" font-family="'Ubuntu-Bold'" font-size="17.0268" rotate="17.62">a</tspan><tspan x="58.794" y="13.577" fill="#FFFFFF" font-family="'Ubuntu-Bold'" font-size="17.0268" rotate="16.051">c</tspan><tspan x="66.449" y="15.79" fill="#FFFFFF" font-family="'Ubuntu-Bold'" font-size="17.0268" rotate="13.33">k</tspan><tspan x="74.739" y="17.763" fill="#FFFFFF" font-family="'Ubuntu-Bold'" font-size="17.0268" rotate="9.063">e</tspan><tspan x="83.76" y="19.124" fill="#FFFFFF" font-family="'Ubuntu-Bold'" font-size="17.0268" rotate="4.224">r</tspan></text>
</g>
</svg>
